<?xml version="1.0" standalone="no"?>
<!DOCTYPE svg PUBLIC "-//W3C//DTD SVG 20010904//EN"
 "http://www.w3.org/TR/2001/REC-SVG-20010904/DTD/svg10.dtd">
<svg version="1.0" xmlns="http://www.w3.org/2000/svg"
 width="1193.000000pt" height="432.000000pt" viewBox="0 0 1193.000000 432.000000"
 preserveAspectRatio="xMidYMid meet">

<g transform="translate(0.000000,432.000000) scale(0.100000,-0.100000)"
fill="#000000" stroke="none">
<path d="M1590 3826 c0 -10 -242 -774 -266 -839 -13 -38 -36 -110 -50 -160
-14 -51 -58 -195 -99 -322 -102 -319 -154 -489 -151 -493 3 -3 149 60 671 288
160 70 292 126 294 124 2 -2 -1 -29 -7 -61 -7 -32 -14 -76 -18 -98 -3 -22 -19
-103 -35 -180 -55 -263 -198 -999 -195 -1002 1 -2 51 120 111 270 59 149 120
299 135 332 15 33 43 103 63 155 62 165 129 335 137 345 4 6 25 57 47 115 69
180 180 461 222 560 22 52 38 96 36 98 -2 2 -92 -33 -202 -79 -465 -191 -756
-309 -760 -305 -2 2 21 59 52 127 63 140 98 223 320 744 87 204 160 373 162
378 2 4 -102 7 -231 7 -130 0 -236 -2 -236 -4z"/>
<path d="M4510 1335 l0 -665 60 0 60 0 0 665 0 665 -60 0 -60 0 0 -665z"/>
<path d="M8570 1336 l0 -666 65 0 65 0 0 290 0 290 148 0 c370 0 530 58 609
218 25 51 28 68 28 157 0 113 -12 161 -55 227 -36 54 -86 89 -172 120 -59 21
-82 22 -375 26 l-313 4 0 -666z m605 539 c127 -33 189 -111 190 -239 0 -90
-24 -153 -75 -200 -64 -58 -115 -68 -367 -73 l-223 -5 0 266 0 266 208 0 c153
0 223 -4 267 -15z"/>
<path d="M9710 1335 l0 -665 55 0 55 0 0 665 0 665 -55 0 -55 0 0 -665z"/>
<path d="M5246 1639 c-110 -27 -216 -115 -268 -220 -82 -168 -81 -412 4 -570
80 -152 262 -233 449 -201 170 29 270 122 322 300 l16 52 -59 0 -59 0 -15 -54
c-22 -74 -70 -135 -136 -171 -50 -27 -64 -30 -145 -30 -99 1 -141 16 -210 76
-114 101 -148 371 -67 544 38 79 69 115 134 150 48 27 62 30 143 30 73 0 98
-4 131 -22 53 -28 118 -102 140 -159 l17 -44 54 0 55 0 -7 38 c-21 118 -105
222 -213 263 -65 24 -221 35 -286 18z"/>
<path d="M6240 1634 c-73 -20 -126 -52 -182 -112 -89 -95 -128 -209 -128 -374
0 -115 12 -181 51 -266 117 -259 493 -323 694 -117 91 93 135 218 135 385 0
311 -170 502 -445 499 -38 0 -95 -7 -125 -15z m237 -99 c114 -34 193 -146 212
-303 38 -299 -115 -511 -351 -489 -184 17 -292 166 -292 402 0 204 77 339 221
391 51 18 148 17 210 -1z"/>
<path d="M7335 1637 c-57 -19 -77 -31 -145 -88 l-60 -50 0 61 0 60 -55 0 -55
0 0 -475 0 -475 54 0 55 0 3 333 c3 314 4 335 24 378 47 100 152 169 259 169
118 0 191 -38 229 -119 20 -44 21 -63 24 -403 l4 -358 54 0 54 0 0 328 c0 339
-7 426 -35 485 -25 53 -82 107 -143 135 -66 30 -203 40 -267 19z"/>
<path d="M11310 1634 c-30 -8 -72 -26 -93 -40 -109 -72 -146 -227 -82 -340 43
-74 126 -112 338 -158 65 -14 136 -35 159 -48 81 -45 108 -120 69 -196 -41
-81 -96 -107 -226 -106 -84 0 -107 3 -148 23 -57 28 -94 74 -118 144 l-18 52
-56 3 -56 3 7 -38 c27 -150 111 -242 254 -279 121 -31 307 0 397 66 85 63 123
209 78 303 -39 83 -111 124 -315 177 -217 57 -268 89 -277 173 -12 102 75 177
207 177 137 0 225 -52 253 -148 l14 -47 57 -3 57 -3 -7 28 c-25 117 -73 187
-153 227 -92 46 -233 59 -341 30z"/>
<path d="M10100 1282 c0 -373 5 -424 54 -504 39 -65 93 -103 176 -124 131 -33
264 -1 363 87 l57 51 0 -61 0 -61 55 0 55 0 0 475 0 475 -54 0 -55 0 -3 -317
-3 -318 -28 -60 c-39 -84 -67 -116 -127 -149 -92 -50 -224 -45 -298 10 -18 14
-42 44 -55 67 -21 41 -22 51 -25 405 l-3 362 -54 0 -55 0 0 -338z"/>
</g>
</svg>
